G75*
%MOIN*%
%OFA0B0*%
%FSLAX24Y24*%
%IPPOS*%
%LPD*%
%AMOC8*
5,1,8,0,0,1.08239X$1,22.5*
%
%ADD10C,0.0060*%
%ADD11C,0.0080*%
%ADD12C,0.0100*%
%ADD13C,0.0050*%
%ADD14C,0.0010*%
%ADD15C,0.0160*%
D10*
X004100Y004210D02*
X006110Y004210D01*
X006110Y006070D02*
X004100Y006070D01*
X010876Y006226D02*
X010982Y006119D01*
X011409Y006119D01*
X011516Y006226D01*
X011516Y006439D01*
X011409Y006546D01*
X011303Y006764D02*
X011303Y007084D01*
X011196Y007191D01*
X010982Y007191D01*
X010876Y007084D01*
X010876Y006764D01*
X011516Y006764D01*
X011303Y006977D02*
X011516Y007191D01*
X011516Y007408D02*
X011089Y007835D01*
X010982Y007835D01*
X010876Y007728D01*
X010876Y007515D01*
X010982Y007408D01*
X011516Y007408D02*
X011516Y007835D01*
X011409Y008053D02*
X010982Y008053D01*
X010876Y008159D01*
X010876Y008373D01*
X010982Y008480D01*
X011409Y008053D01*
X011516Y008159D01*
X011516Y008373D01*
X011409Y008480D01*
X010982Y008480D01*
X010982Y008697D02*
X010876Y008804D01*
X010876Y009018D01*
X010982Y009124D01*
X011089Y009124D01*
X011196Y009018D01*
X011303Y009124D01*
X011409Y009124D01*
X011516Y009018D01*
X011516Y008804D01*
X011409Y008697D01*
X011196Y008911D02*
X011196Y009018D01*
X010982Y009342D02*
X010876Y009449D01*
X010876Y009662D01*
X010982Y009769D01*
X011089Y009769D01*
X011516Y009342D01*
X011516Y009769D01*
X011926Y009662D02*
X011926Y009449D01*
X012032Y009342D01*
X012032Y009124D02*
X012139Y009124D01*
X012246Y009018D01*
X012353Y009124D01*
X012459Y009124D01*
X012566Y009018D01*
X012566Y008804D01*
X012459Y008697D01*
X012459Y008480D02*
X012566Y008373D01*
X012566Y008159D01*
X012459Y008053D01*
X012032Y008480D01*
X012459Y008480D01*
X012032Y008480D02*
X011926Y008373D01*
X011926Y008159D01*
X012032Y008053D01*
X012459Y008053D01*
X012566Y007835D02*
X012566Y007408D01*
X012139Y007835D01*
X012032Y007835D01*
X011926Y007728D01*
X011926Y007515D01*
X012032Y007408D01*
X012032Y007191D02*
X011926Y007084D01*
X011926Y006870D01*
X012032Y006764D01*
X012459Y006764D01*
X012566Y006870D01*
X012566Y007084D01*
X012459Y007191D01*
X012459Y006546D02*
X012566Y006439D01*
X012566Y006119D01*
X011926Y006119D01*
X011926Y006439D01*
X012032Y006546D01*
X012139Y006546D01*
X012246Y006439D01*
X012246Y006119D01*
X012246Y006439D02*
X012353Y006546D01*
X012459Y006546D01*
X010982Y006546D02*
X010876Y006439D01*
X010876Y006226D01*
X012032Y008697D02*
X011926Y008804D01*
X011926Y009018D01*
X012032Y009124D01*
X012246Y009018D02*
X012246Y008911D01*
X012566Y009342D02*
X012139Y009769D01*
X012032Y009769D01*
X011926Y009662D01*
X012246Y009986D02*
X012246Y010413D01*
X012246Y010631D02*
X012246Y010844D01*
X012566Y010631D02*
X011926Y010631D01*
X011926Y011058D01*
X012139Y011275D02*
X011926Y011489D01*
X012566Y011489D01*
X012566Y011702D02*
X012566Y011275D01*
X012566Y009769D02*
X012566Y009342D01*
X008212Y014720D02*
X007785Y014720D01*
X007999Y014720D02*
X007999Y015361D01*
X007785Y015147D01*
X007568Y015361D02*
X007354Y015361D01*
X007461Y015361D02*
X007461Y014827D01*
X007354Y014720D01*
X007248Y014720D01*
X007141Y014827D01*
X009732Y016239D02*
X010159Y016239D01*
X009946Y016025D02*
X009946Y016452D01*
X019767Y014390D02*
X019769Y014453D01*
X019775Y014515D01*
X019785Y014577D01*
X019798Y014639D01*
X019816Y014699D01*
X019837Y014758D01*
X019862Y014816D01*
X019891Y014872D01*
X019923Y014926D01*
X019958Y014978D01*
X019996Y015027D01*
X020038Y015075D01*
X020082Y015119D01*
X020130Y015161D01*
X020179Y015199D01*
X020231Y015234D01*
X020285Y015266D01*
X020341Y015295D01*
X020399Y015320D01*
X020458Y015341D01*
X020518Y015359D01*
X020580Y015372D01*
X020642Y015382D01*
X020704Y015388D01*
X020767Y015390D01*
X020830Y015388D01*
X020892Y015382D01*
X020954Y015372D01*
X021016Y015359D01*
X021076Y015341D01*
X021135Y015320D01*
X021193Y015295D01*
X021249Y015266D01*
X021303Y015234D01*
X021355Y015199D01*
X021404Y015161D01*
X021452Y015119D01*
X021496Y015075D01*
X021538Y015027D01*
X021576Y014978D01*
X021611Y014926D01*
X021643Y014872D01*
X021672Y014816D01*
X021697Y014758D01*
X021718Y014699D01*
X021736Y014639D01*
X021749Y014577D01*
X021759Y014515D01*
X021765Y014453D01*
X021767Y014390D01*
X021765Y014327D01*
X021759Y014265D01*
X021749Y014203D01*
X021736Y014141D01*
X021718Y014081D01*
X021697Y014022D01*
X021672Y013964D01*
X021643Y013908D01*
X021611Y013854D01*
X021576Y013802D01*
X021538Y013753D01*
X021496Y013705D01*
X021452Y013661D01*
X021404Y013619D01*
X021355Y013581D01*
X021303Y013546D01*
X021249Y013514D01*
X021193Y013485D01*
X021135Y013460D01*
X021076Y013439D01*
X021016Y013421D01*
X020954Y013408D01*
X020892Y013398D01*
X020830Y013392D01*
X020767Y013390D01*
X020704Y013392D01*
X020642Y013398D01*
X020580Y013408D01*
X020518Y013421D01*
X020458Y013439D01*
X020399Y013460D01*
X020341Y013485D01*
X020285Y013514D01*
X020231Y013546D01*
X020179Y013581D01*
X020130Y013619D01*
X020082Y013661D01*
X020038Y013705D01*
X019996Y013753D01*
X019958Y013802D01*
X019923Y013854D01*
X019891Y013908D01*
X019862Y013964D01*
X019837Y014022D01*
X019816Y014081D01*
X019798Y014141D01*
X019785Y014203D01*
X019775Y014265D01*
X019769Y014327D01*
X019767Y014390D01*
X019767Y011640D02*
X019769Y011703D01*
X019775Y011765D01*
X019785Y011827D01*
X019798Y011889D01*
X019816Y011949D01*
X019837Y012008D01*
X019862Y012066D01*
X019891Y012122D01*
X019923Y012176D01*
X019958Y012228D01*
X019996Y012277D01*
X020038Y012325D01*
X020082Y012369D01*
X020130Y012411D01*
X020179Y012449D01*
X020231Y012484D01*
X020285Y012516D01*
X020341Y012545D01*
X020399Y012570D01*
X020458Y012591D01*
X020518Y012609D01*
X020580Y012622D01*
X020642Y012632D01*
X020704Y012638D01*
X020767Y012640D01*
X020830Y012638D01*
X020892Y012632D01*
X020954Y012622D01*
X021016Y012609D01*
X021076Y012591D01*
X021135Y012570D01*
X021193Y012545D01*
X021249Y012516D01*
X021303Y012484D01*
X021355Y012449D01*
X021404Y012411D01*
X021452Y012369D01*
X021496Y012325D01*
X021538Y012277D01*
X021576Y012228D01*
X021611Y012176D01*
X021643Y012122D01*
X021672Y012066D01*
X021697Y012008D01*
X021718Y011949D01*
X021736Y011889D01*
X021749Y011827D01*
X021759Y011765D01*
X021765Y011703D01*
X021767Y011640D01*
X021765Y011577D01*
X021759Y011515D01*
X021749Y011453D01*
X021736Y011391D01*
X021718Y011331D01*
X021697Y011272D01*
X021672Y011214D01*
X021643Y011158D01*
X021611Y011104D01*
X021576Y011052D01*
X021538Y011003D01*
X021496Y010955D01*
X021452Y010911D01*
X021404Y010869D01*
X021355Y010831D01*
X021303Y010796D01*
X021249Y010764D01*
X021193Y010735D01*
X021135Y010710D01*
X021076Y010689D01*
X021016Y010671D01*
X020954Y010658D01*
X020892Y010648D01*
X020830Y010642D01*
X020767Y010640D01*
X020704Y010642D01*
X020642Y010648D01*
X020580Y010658D01*
X020518Y010671D01*
X020458Y010689D01*
X020399Y010710D01*
X020341Y010735D01*
X020285Y010764D01*
X020231Y010796D01*
X020179Y010831D01*
X020130Y010869D01*
X020082Y010911D01*
X020038Y010955D01*
X019996Y011003D01*
X019958Y011052D01*
X019923Y011104D01*
X019891Y011158D01*
X019862Y011214D01*
X019837Y011272D01*
X019816Y011331D01*
X019798Y011391D01*
X019785Y011453D01*
X019775Y011515D01*
X019769Y011577D01*
X019767Y011640D01*
X019767Y008640D02*
X019769Y008703D01*
X019775Y008765D01*
X019785Y008827D01*
X019798Y008889D01*
X019816Y008949D01*
X019837Y009008D01*
X019862Y009066D01*
X019891Y009122D01*
X019923Y009176D01*
X019958Y009228D01*
X019996Y009277D01*
X020038Y009325D01*
X020082Y009369D01*
X020130Y009411D01*
X020179Y009449D01*
X020231Y009484D01*
X020285Y009516D01*
X020341Y009545D01*
X020399Y009570D01*
X020458Y009591D01*
X020518Y009609D01*
X020580Y009622D01*
X020642Y009632D01*
X020704Y009638D01*
X020767Y009640D01*
X020830Y009638D01*
X020892Y009632D01*
X020954Y009622D01*
X021016Y009609D01*
X021076Y009591D01*
X021135Y009570D01*
X021193Y009545D01*
X021249Y009516D01*
X021303Y009484D01*
X021355Y009449D01*
X021404Y009411D01*
X021452Y009369D01*
X021496Y009325D01*
X021538Y009277D01*
X021576Y009228D01*
X021611Y009176D01*
X021643Y009122D01*
X021672Y009066D01*
X021697Y009008D01*
X021718Y008949D01*
X021736Y008889D01*
X021749Y008827D01*
X021759Y008765D01*
X021765Y008703D01*
X021767Y008640D01*
X021765Y008577D01*
X021759Y008515D01*
X021749Y008453D01*
X021736Y008391D01*
X021718Y008331D01*
X021697Y008272D01*
X021672Y008214D01*
X021643Y008158D01*
X021611Y008104D01*
X021576Y008052D01*
X021538Y008003D01*
X021496Y007955D01*
X021452Y007911D01*
X021404Y007869D01*
X021355Y007831D01*
X021303Y007796D01*
X021249Y007764D01*
X021193Y007735D01*
X021135Y007710D01*
X021076Y007689D01*
X021016Y007671D01*
X020954Y007658D01*
X020892Y007648D01*
X020830Y007642D01*
X020767Y007640D01*
X020704Y007642D01*
X020642Y007648D01*
X020580Y007658D01*
X020518Y007671D01*
X020458Y007689D01*
X020399Y007710D01*
X020341Y007735D01*
X020285Y007764D01*
X020231Y007796D01*
X020179Y007831D01*
X020130Y007869D01*
X020082Y007911D01*
X020038Y007955D01*
X019996Y008003D01*
X019958Y008052D01*
X019923Y008104D01*
X019891Y008158D01*
X019862Y008214D01*
X019837Y008272D01*
X019816Y008331D01*
X019798Y008391D01*
X019785Y008453D01*
X019775Y008515D01*
X019769Y008577D01*
X019767Y008640D01*
X019767Y005640D02*
X019769Y005703D01*
X019775Y005765D01*
X019785Y005827D01*
X019798Y005889D01*
X019816Y005949D01*
X019837Y006008D01*
X019862Y006066D01*
X019891Y006122D01*
X019923Y006176D01*
X019958Y006228D01*
X019996Y006277D01*
X020038Y006325D01*
X020082Y006369D01*
X020130Y006411D01*
X020179Y006449D01*
X020231Y006484D01*
X020285Y006516D01*
X020341Y006545D01*
X020399Y006570D01*
X020458Y006591D01*
X020518Y006609D01*
X020580Y006622D01*
X020642Y006632D01*
X020704Y006638D01*
X020767Y006640D01*
X020830Y006638D01*
X020892Y006632D01*
X020954Y006622D01*
X021016Y006609D01*
X021076Y006591D01*
X021135Y006570D01*
X021193Y006545D01*
X021249Y006516D01*
X021303Y006484D01*
X021355Y006449D01*
X021404Y006411D01*
X021452Y006369D01*
X021496Y006325D01*
X021538Y006277D01*
X021576Y006228D01*
X021611Y006176D01*
X021643Y006122D01*
X021672Y006066D01*
X021697Y006008D01*
X021718Y005949D01*
X021736Y005889D01*
X021749Y005827D01*
X021759Y005765D01*
X021765Y005703D01*
X021767Y005640D01*
X021765Y005577D01*
X021759Y005515D01*
X021749Y005453D01*
X021736Y005391D01*
X021718Y005331D01*
X021697Y005272D01*
X021672Y005214D01*
X021643Y005158D01*
X021611Y005104D01*
X021576Y005052D01*
X021538Y005003D01*
X021496Y004955D01*
X021452Y004911D01*
X021404Y004869D01*
X021355Y004831D01*
X021303Y004796D01*
X021249Y004764D01*
X021193Y004735D01*
X021135Y004710D01*
X021076Y004689D01*
X021016Y004671D01*
X020954Y004658D01*
X020892Y004648D01*
X020830Y004642D01*
X020767Y004640D01*
X020704Y004642D01*
X020642Y004648D01*
X020580Y004658D01*
X020518Y004671D01*
X020458Y004689D01*
X020399Y004710D01*
X020341Y004735D01*
X020285Y004764D01*
X020231Y004796D01*
X020179Y004831D01*
X020130Y004869D01*
X020082Y004911D01*
X020038Y004955D01*
X019996Y005003D01*
X019958Y005052D01*
X019923Y005104D01*
X019891Y005158D01*
X019862Y005214D01*
X019837Y005272D01*
X019816Y005331D01*
X019798Y005391D01*
X019785Y005453D01*
X019775Y005515D01*
X019769Y005577D01*
X019767Y005640D01*
X019767Y002640D02*
X019769Y002703D01*
X019775Y002765D01*
X019785Y002827D01*
X019798Y002889D01*
X019816Y002949D01*
X019837Y003008D01*
X019862Y003066D01*
X019891Y003122D01*
X019923Y003176D01*
X019958Y003228D01*
X019996Y003277D01*
X020038Y003325D01*
X020082Y003369D01*
X020130Y003411D01*
X020179Y003449D01*
X020231Y003484D01*
X020285Y003516D01*
X020341Y003545D01*
X020399Y003570D01*
X020458Y003591D01*
X020518Y003609D01*
X020580Y003622D01*
X020642Y003632D01*
X020704Y003638D01*
X020767Y003640D01*
X020830Y003638D01*
X020892Y003632D01*
X020954Y003622D01*
X021016Y003609D01*
X021076Y003591D01*
X021135Y003570D01*
X021193Y003545D01*
X021249Y003516D01*
X021303Y003484D01*
X021355Y003449D01*
X021404Y003411D01*
X021452Y003369D01*
X021496Y003325D01*
X021538Y003277D01*
X021576Y003228D01*
X021611Y003176D01*
X021643Y003122D01*
X021672Y003066D01*
X021697Y003008D01*
X021718Y002949D01*
X021736Y002889D01*
X021749Y002827D01*
X021759Y002765D01*
X021765Y002703D01*
X021767Y002640D01*
X021765Y002577D01*
X021759Y002515D01*
X021749Y002453D01*
X021736Y002391D01*
X021718Y002331D01*
X021697Y002272D01*
X021672Y002214D01*
X021643Y002158D01*
X021611Y002104D01*
X021576Y002052D01*
X021538Y002003D01*
X021496Y001955D01*
X021452Y001911D01*
X021404Y001869D01*
X021355Y001831D01*
X021303Y001796D01*
X021249Y001764D01*
X021193Y001735D01*
X021135Y001710D01*
X021076Y001689D01*
X021016Y001671D01*
X020954Y001658D01*
X020892Y001648D01*
X020830Y001642D01*
X020767Y001640D01*
X020704Y001642D01*
X020642Y001648D01*
X020580Y001658D01*
X020518Y001671D01*
X020458Y001689D01*
X020399Y001710D01*
X020341Y001735D01*
X020285Y001764D01*
X020231Y001796D01*
X020179Y001831D01*
X020130Y001869D01*
X020082Y001911D01*
X020038Y001955D01*
X019996Y002003D01*
X019958Y002052D01*
X019923Y002104D01*
X019891Y002158D01*
X019862Y002214D01*
X019837Y002272D01*
X019816Y002331D01*
X019798Y002391D01*
X019785Y002453D01*
X019775Y002515D01*
X019769Y002577D01*
X019767Y002640D01*
D11*
X020017Y001640D02*
X021517Y001640D01*
X021517Y004640D02*
X020017Y004640D01*
X020017Y007640D02*
X021517Y007640D01*
X021517Y010640D02*
X020017Y010640D01*
X020017Y013390D02*
X021517Y013390D01*
X005733Y004430D02*
X005735Y004445D01*
X005741Y004458D01*
X005750Y004470D01*
X005761Y004479D01*
X005775Y004485D01*
X005790Y004487D01*
X005805Y004485D01*
X005818Y004479D01*
X005830Y004470D01*
X005839Y004459D01*
X005845Y004445D01*
X005847Y004430D01*
X005845Y004415D01*
X005839Y004402D01*
X005830Y004390D01*
X005819Y004381D01*
X005805Y004375D01*
X005790Y004373D01*
X005775Y004375D01*
X005762Y004381D01*
X005750Y004390D01*
X005741Y004401D01*
X005735Y004415D01*
X005733Y004430D01*
D12*
X020017Y004640D02*
X019963Y004683D01*
X019911Y004729D01*
X019862Y004778D01*
X019815Y004830D01*
X019772Y004884D01*
X019731Y004940D01*
X019694Y004999D01*
X019660Y005059D01*
X019630Y005122D01*
X019603Y005185D01*
X019579Y005251D01*
X019559Y005317D01*
X019543Y005385D01*
X019531Y005453D01*
X019523Y005522D01*
X019518Y005591D01*
X019517Y005661D01*
X019520Y005730D01*
X019527Y005799D01*
X019538Y005867D01*
X019552Y005935D01*
X019571Y006002D01*
X019593Y006068D01*
X019618Y006133D01*
X019647Y006196D01*
X019680Y006257D01*
X019716Y006316D01*
X019755Y006373D01*
X019797Y006429D01*
X019842Y006481D01*
X019890Y006531D01*
X019941Y006578D01*
X019995Y006623D01*
X020050Y006664D01*
X020108Y006702D01*
X020168Y006737D01*
X020230Y006769D01*
X020293Y006797D01*
X020358Y006821D01*
X020424Y006842D01*
X020492Y006859D01*
X020560Y006873D01*
X020629Y006882D01*
X020698Y006888D01*
X020767Y006890D01*
X020836Y006888D01*
X020905Y006882D01*
X020974Y006873D01*
X021042Y006859D01*
X021110Y006842D01*
X021176Y006821D01*
X021241Y006797D01*
X021304Y006769D01*
X021366Y006737D01*
X021426Y006702D01*
X021484Y006664D01*
X021539Y006623D01*
X021593Y006578D01*
X021644Y006531D01*
X021692Y006481D01*
X021737Y006429D01*
X021779Y006373D01*
X021818Y006316D01*
X021854Y006257D01*
X021887Y006196D01*
X021916Y006133D01*
X021941Y006068D01*
X021963Y006002D01*
X021982Y005935D01*
X021996Y005867D01*
X022007Y005799D01*
X022014Y005730D01*
X022017Y005661D01*
X022016Y005591D01*
X022011Y005522D01*
X022003Y005453D01*
X021991Y005385D01*
X021975Y005317D01*
X021955Y005251D01*
X021931Y005185D01*
X021904Y005122D01*
X021874Y005059D01*
X021840Y004999D01*
X021803Y004940D01*
X021762Y004884D01*
X021719Y004830D01*
X021672Y004778D01*
X021623Y004729D01*
X021571Y004683D01*
X021517Y004640D01*
X021517Y001640D02*
X021571Y001683D01*
X021623Y001729D01*
X021672Y001778D01*
X021719Y001830D01*
X021762Y001884D01*
X021803Y001940D01*
X021840Y001999D01*
X021874Y002059D01*
X021904Y002122D01*
X021931Y002185D01*
X021955Y002251D01*
X021975Y002317D01*
X021991Y002385D01*
X022003Y002453D01*
X022011Y002522D01*
X022016Y002591D01*
X022017Y002661D01*
X022014Y002730D01*
X022007Y002799D01*
X021996Y002867D01*
X021982Y002935D01*
X021963Y003002D01*
X021941Y003068D01*
X021916Y003133D01*
X021887Y003196D01*
X021854Y003257D01*
X021818Y003316D01*
X021779Y003373D01*
X021737Y003429D01*
X021692Y003481D01*
X021644Y003531D01*
X021593Y003578D01*
X021539Y003623D01*
X021484Y003664D01*
X021426Y003702D01*
X021366Y003737D01*
X021304Y003769D01*
X021241Y003797D01*
X021176Y003821D01*
X021110Y003842D01*
X021042Y003859D01*
X020974Y003873D01*
X020905Y003882D01*
X020836Y003888D01*
X020767Y003890D01*
X020698Y003888D01*
X020629Y003882D01*
X020560Y003873D01*
X020492Y003859D01*
X020424Y003842D01*
X020358Y003821D01*
X020293Y003797D01*
X020230Y003769D01*
X020168Y003737D01*
X020108Y003702D01*
X020050Y003664D01*
X019995Y003623D01*
X019941Y003578D01*
X019890Y003531D01*
X019842Y003481D01*
X019797Y003429D01*
X019755Y003373D01*
X019716Y003316D01*
X019680Y003257D01*
X019647Y003196D01*
X019618Y003133D01*
X019593Y003068D01*
X019571Y003002D01*
X019552Y002935D01*
X019538Y002867D01*
X019527Y002799D01*
X019520Y002730D01*
X019517Y002661D01*
X019518Y002591D01*
X019523Y002522D01*
X019531Y002453D01*
X019543Y002385D01*
X019559Y002317D01*
X019579Y002251D01*
X019603Y002185D01*
X019630Y002122D01*
X019660Y002059D01*
X019694Y001999D01*
X019731Y001940D01*
X019772Y001884D01*
X019815Y001830D01*
X019862Y001778D01*
X019911Y001729D01*
X019963Y001683D01*
X020017Y001640D01*
X020017Y007640D02*
X019963Y007683D01*
X019911Y007729D01*
X019862Y007778D01*
X019815Y007830D01*
X019772Y007884D01*
X019731Y007940D01*
X019694Y007999D01*
X019660Y008059D01*
X019630Y008122D01*
X019603Y008185D01*
X019579Y008251D01*
X019559Y008317D01*
X019543Y008385D01*
X019531Y008453D01*
X019523Y008522D01*
X019518Y008591D01*
X019517Y008661D01*
X019520Y008730D01*
X019527Y008799D01*
X019538Y008867D01*
X019552Y008935D01*
X019571Y009002D01*
X019593Y009068D01*
X019618Y009133D01*
X019647Y009196D01*
X019680Y009257D01*
X019716Y009316D01*
X019755Y009373D01*
X019797Y009429D01*
X019842Y009481D01*
X019890Y009531D01*
X019941Y009578D01*
X019995Y009623D01*
X020050Y009664D01*
X020108Y009702D01*
X020168Y009737D01*
X020230Y009769D01*
X020293Y009797D01*
X020358Y009821D01*
X020424Y009842D01*
X020492Y009859D01*
X020560Y009873D01*
X020629Y009882D01*
X020698Y009888D01*
X020767Y009890D01*
X020836Y009888D01*
X020905Y009882D01*
X020974Y009873D01*
X021042Y009859D01*
X021110Y009842D01*
X021176Y009821D01*
X021241Y009797D01*
X021304Y009769D01*
X021366Y009737D01*
X021426Y009702D01*
X021484Y009664D01*
X021539Y009623D01*
X021593Y009578D01*
X021644Y009531D01*
X021692Y009481D01*
X021737Y009429D01*
X021779Y009373D01*
X021818Y009316D01*
X021854Y009257D01*
X021887Y009196D01*
X021916Y009133D01*
X021941Y009068D01*
X021963Y009002D01*
X021982Y008935D01*
X021996Y008867D01*
X022007Y008799D01*
X022014Y008730D01*
X022017Y008661D01*
X022016Y008591D01*
X022011Y008522D01*
X022003Y008453D01*
X021991Y008385D01*
X021975Y008317D01*
X021955Y008251D01*
X021931Y008185D01*
X021904Y008122D01*
X021874Y008059D01*
X021840Y007999D01*
X021803Y007940D01*
X021762Y007884D01*
X021719Y007830D01*
X021672Y007778D01*
X021623Y007729D01*
X021571Y007683D01*
X021517Y007640D01*
X021517Y010640D02*
X021571Y010683D01*
X021623Y010729D01*
X021672Y010778D01*
X021719Y010830D01*
X021762Y010884D01*
X021803Y010940D01*
X021840Y010999D01*
X021874Y011059D01*
X021904Y011122D01*
X021931Y011185D01*
X021955Y011251D01*
X021975Y011317D01*
X021991Y011385D01*
X022003Y011453D01*
X022011Y011522D01*
X022016Y011591D01*
X022017Y011661D01*
X022014Y011730D01*
X022007Y011799D01*
X021996Y011867D01*
X021982Y011935D01*
X021963Y012002D01*
X021941Y012068D01*
X021916Y012133D01*
X021887Y012196D01*
X021854Y012257D01*
X021818Y012316D01*
X021779Y012373D01*
X021737Y012429D01*
X021692Y012481D01*
X021644Y012531D01*
X021593Y012578D01*
X021539Y012623D01*
X021484Y012664D01*
X021426Y012702D01*
X021366Y012737D01*
X021304Y012769D01*
X021241Y012797D01*
X021176Y012821D01*
X021110Y012842D01*
X021042Y012859D01*
X020974Y012873D01*
X020905Y012882D01*
X020836Y012888D01*
X020767Y012890D01*
X020698Y012888D01*
X020629Y012882D01*
X020560Y012873D01*
X020492Y012859D01*
X020424Y012842D01*
X020358Y012821D01*
X020293Y012797D01*
X020230Y012769D01*
X020168Y012737D01*
X020108Y012702D01*
X020050Y012664D01*
X019995Y012623D01*
X019941Y012578D01*
X019890Y012531D01*
X019842Y012481D01*
X019797Y012429D01*
X019755Y012373D01*
X019716Y012316D01*
X019680Y012257D01*
X019647Y012196D01*
X019618Y012133D01*
X019593Y012068D01*
X019571Y012002D01*
X019552Y011935D01*
X019538Y011867D01*
X019527Y011799D01*
X019520Y011730D01*
X019517Y011661D01*
X019518Y011591D01*
X019523Y011522D01*
X019531Y011453D01*
X019543Y011385D01*
X019559Y011317D01*
X019579Y011251D01*
X019603Y011185D01*
X019630Y011122D01*
X019660Y011059D01*
X019694Y010999D01*
X019731Y010940D01*
X019772Y010884D01*
X019815Y010830D01*
X019862Y010778D01*
X019911Y010729D01*
X019963Y010683D01*
X020017Y010640D01*
X020017Y013390D02*
X019963Y013433D01*
X019911Y013479D01*
X019862Y013528D01*
X019815Y013580D01*
X019772Y013634D01*
X019731Y013690D01*
X019694Y013749D01*
X019660Y013809D01*
X019630Y013872D01*
X019603Y013935D01*
X019579Y014001D01*
X019559Y014067D01*
X019543Y014135D01*
X019531Y014203D01*
X019523Y014272D01*
X019518Y014341D01*
X019517Y014411D01*
X019520Y014480D01*
X019527Y014549D01*
X019538Y014617D01*
X019552Y014685D01*
X019571Y014752D01*
X019593Y014818D01*
X019618Y014883D01*
X019647Y014946D01*
X019680Y015007D01*
X019716Y015066D01*
X019755Y015123D01*
X019797Y015179D01*
X019842Y015231D01*
X019890Y015281D01*
X019941Y015328D01*
X019995Y015373D01*
X020050Y015414D01*
X020108Y015452D01*
X020168Y015487D01*
X020230Y015519D01*
X020293Y015547D01*
X020358Y015571D01*
X020424Y015592D01*
X020492Y015609D01*
X020560Y015623D01*
X020629Y015632D01*
X020698Y015638D01*
X020767Y015640D01*
X020836Y015638D01*
X020905Y015632D01*
X020974Y015623D01*
X021042Y015609D01*
X021110Y015592D01*
X021176Y015571D01*
X021241Y015547D01*
X021304Y015519D01*
X021366Y015487D01*
X021426Y015452D01*
X021484Y015414D01*
X021539Y015373D01*
X021593Y015328D01*
X021644Y015281D01*
X021692Y015231D01*
X021737Y015179D01*
X021779Y015123D01*
X021818Y015066D01*
X021854Y015007D01*
X021887Y014946D01*
X021916Y014883D01*
X021941Y014818D01*
X021963Y014752D01*
X021982Y014685D01*
X021996Y014617D01*
X022007Y014549D01*
X022014Y014480D01*
X022017Y014411D01*
X022016Y014341D01*
X022011Y014272D01*
X022003Y014203D01*
X021991Y014135D01*
X021975Y014067D01*
X021955Y014001D01*
X021931Y013935D01*
X021904Y013872D01*
X021874Y013809D01*
X021840Y013749D01*
X021803Y013690D01*
X021762Y013634D01*
X021719Y013580D01*
X021672Y013528D01*
X021623Y013479D01*
X021571Y013433D01*
X021517Y013390D01*
D13*
X018382Y012330D02*
X018382Y012255D01*
X018082Y011955D01*
X018382Y011955D01*
X017922Y012030D02*
X017922Y012330D01*
X017847Y012405D01*
X017622Y012405D01*
X017622Y011955D01*
X017847Y011955D01*
X017922Y012030D01*
X018082Y012330D02*
X018157Y012405D01*
X018307Y012405D01*
X018382Y012330D01*
X017461Y012405D02*
X017161Y012405D01*
X017161Y011955D01*
X017461Y011955D01*
X017311Y012180D02*
X017161Y012180D01*
X016701Y012405D02*
X016701Y011955D01*
X017001Y011955D01*
X017161Y009405D02*
X017161Y008955D01*
X017461Y008955D01*
X017622Y008955D02*
X017847Y008955D01*
X017922Y009030D01*
X017922Y009330D01*
X017847Y009405D01*
X017622Y009405D01*
X017622Y008955D01*
X017311Y009180D02*
X017161Y009180D01*
X017161Y009405D02*
X017461Y009405D01*
X018082Y009330D02*
X018157Y009405D01*
X018307Y009405D01*
X018382Y009330D01*
X018382Y009255D01*
X018307Y009180D01*
X018382Y009105D01*
X018382Y009030D01*
X018307Y008955D01*
X018157Y008955D01*
X018082Y009030D01*
X018232Y009180D02*
X018307Y009180D01*
X017001Y008955D02*
X016701Y008955D01*
X016701Y009405D01*
X016701Y006405D02*
X016701Y005955D01*
X017001Y005955D01*
X017161Y005955D02*
X017461Y005955D01*
X017622Y005955D02*
X017847Y005955D01*
X017922Y006030D01*
X017922Y006330D01*
X017847Y006405D01*
X017622Y006405D01*
X017622Y005955D01*
X017311Y006180D02*
X017161Y006180D01*
X017161Y006405D02*
X017161Y005955D01*
X017161Y006405D02*
X017461Y006405D01*
X018082Y006180D02*
X018382Y006180D01*
X018307Y005955D02*
X018307Y006405D01*
X018082Y006180D01*
X018082Y003405D02*
X018082Y003180D01*
X018232Y003255D01*
X018307Y003255D01*
X018382Y003180D01*
X018382Y003030D01*
X018307Y002955D01*
X018157Y002955D01*
X018082Y003030D01*
X017922Y003030D02*
X017922Y003330D01*
X017847Y003405D01*
X017622Y003405D01*
X017622Y002955D01*
X017847Y002955D01*
X017922Y003030D01*
X018082Y003405D02*
X018382Y003405D01*
X017461Y003405D02*
X017161Y003405D01*
X017161Y002955D01*
X017461Y002955D01*
X017311Y003180D02*
X017161Y003180D01*
X017001Y002955D02*
X016701Y002955D01*
X016701Y003405D01*
X007353Y009640D02*
X007355Y009770D01*
X007361Y009900D01*
X007371Y010030D01*
X007385Y010159D01*
X007403Y010288D01*
X007425Y010416D01*
X007450Y010543D01*
X007480Y010670D01*
X007513Y010796D01*
X007551Y010920D01*
X007592Y011044D01*
X007637Y011166D01*
X007685Y011286D01*
X007738Y011405D01*
X007794Y011523D01*
X007853Y011638D01*
X007916Y011752D01*
X007983Y011864D01*
X008052Y011974D01*
X008126Y012081D01*
X008202Y012186D01*
X008282Y012289D01*
X008364Y012389D01*
X008450Y012487D01*
X008539Y012582D01*
X008630Y012675D01*
X008725Y012764D01*
X008822Y012851D01*
X008922Y012934D01*
X009024Y013014D01*
X009128Y013092D01*
X009235Y013166D01*
X009344Y013236D01*
X009456Y013304D01*
X009569Y013368D01*
X009684Y013428D01*
X009801Y013485D01*
X009920Y013538D01*
X010040Y013587D01*
X010162Y013633D01*
X010285Y013675D01*
X010409Y013714D01*
X010535Y013748D01*
X010661Y013779D01*
X010788Y013805D01*
X010916Y013828D01*
X011045Y013847D01*
X011174Y013862D01*
X011304Y013873D01*
X011433Y013880D01*
X011563Y013883D01*
X011694Y013882D01*
X011823Y013877D01*
X011953Y013868D01*
X012083Y013855D01*
X012212Y013838D01*
X012340Y013817D01*
X012468Y013793D01*
X012594Y013764D01*
X012720Y013731D01*
X012845Y013695D01*
X012969Y013655D01*
X013091Y013611D01*
X013212Y013563D01*
X013332Y013512D01*
X013450Y013457D01*
X013566Y013398D01*
X013680Y013336D01*
X013792Y013270D01*
X013902Y013201D01*
X014010Y013129D01*
X014116Y013053D01*
X014220Y012975D01*
X014321Y012893D01*
X014419Y012808D01*
X014515Y012720D01*
X014608Y012629D01*
X014698Y012535D01*
X014785Y012439D01*
X014869Y012340D01*
X014951Y012238D01*
X015029Y012134D01*
X015103Y012028D01*
X015175Y011919D01*
X015243Y011808D01*
X015308Y011695D01*
X015369Y011581D01*
X015427Y011464D01*
X015481Y011346D01*
X015531Y011226D01*
X015578Y011105D01*
X015621Y010982D01*
X015660Y010858D01*
X015696Y010733D01*
X015727Y010607D01*
X015755Y010480D01*
X015779Y010352D01*
X015799Y010223D01*
X015815Y010094D01*
X015827Y009965D01*
X015835Y009835D01*
X015839Y009705D01*
X015839Y009575D01*
X015835Y009445D01*
X015827Y009315D01*
X015815Y009186D01*
X015799Y009057D01*
X015779Y008928D01*
X015755Y008800D01*
X015727Y008673D01*
X015696Y008547D01*
X015660Y008422D01*
X015621Y008298D01*
X015578Y008175D01*
X015531Y008054D01*
X015481Y007934D01*
X015427Y007816D01*
X015369Y007699D01*
X015308Y007585D01*
X015243Y007472D01*
X015175Y007361D01*
X015103Y007252D01*
X015029Y007146D01*
X014951Y007042D01*
X014869Y006940D01*
X014785Y006841D01*
X014698Y006745D01*
X014608Y006651D01*
X014515Y006560D01*
X014419Y006472D01*
X014321Y006387D01*
X014220Y006305D01*
X014116Y006227D01*
X014010Y006151D01*
X013902Y006079D01*
X013792Y006010D01*
X013680Y005944D01*
X013566Y005882D01*
X013450Y005823D01*
X013332Y005768D01*
X013212Y005717D01*
X013091Y005669D01*
X012969Y005625D01*
X012845Y005585D01*
X012720Y005549D01*
X012594Y005516D01*
X012468Y005487D01*
X012340Y005463D01*
X012212Y005442D01*
X012083Y005425D01*
X011953Y005412D01*
X011823Y005403D01*
X011694Y005398D01*
X011563Y005397D01*
X011433Y005400D01*
X011304Y005407D01*
X011174Y005418D01*
X011045Y005433D01*
X010916Y005452D01*
X010788Y005475D01*
X010661Y005501D01*
X010535Y005532D01*
X010409Y005566D01*
X010285Y005605D01*
X010162Y005647D01*
X010040Y005693D01*
X009920Y005742D01*
X009801Y005795D01*
X009684Y005852D01*
X009569Y005912D01*
X009456Y005976D01*
X009344Y006044D01*
X009235Y006114D01*
X009128Y006188D01*
X009024Y006266D01*
X008922Y006346D01*
X008822Y006429D01*
X008725Y006516D01*
X008630Y006605D01*
X008539Y006698D01*
X008450Y006793D01*
X008364Y006891D01*
X008282Y006991D01*
X008202Y007094D01*
X008126Y007199D01*
X008052Y007306D01*
X007983Y007416D01*
X007916Y007528D01*
X007853Y007642D01*
X007794Y007757D01*
X007738Y007875D01*
X007685Y007994D01*
X007637Y008114D01*
X007592Y008236D01*
X007551Y008360D01*
X007513Y008484D01*
X007480Y008610D01*
X007450Y008737D01*
X007425Y008864D01*
X007403Y008992D01*
X007385Y009121D01*
X007371Y009250D01*
X007361Y009380D01*
X007355Y009510D01*
X007353Y009640D01*
X016701Y014705D02*
X017001Y014705D01*
X017161Y014705D02*
X017461Y014705D01*
X017622Y014705D02*
X017847Y014705D01*
X017922Y014780D01*
X017922Y015080D01*
X017847Y015155D01*
X017622Y015155D01*
X017622Y014705D01*
X017311Y014930D02*
X017161Y014930D01*
X017161Y015155D02*
X017161Y014705D01*
X016701Y014705D02*
X016701Y015155D01*
X017161Y015155D02*
X017461Y015155D01*
X018082Y015005D02*
X018232Y015155D01*
X018232Y014705D01*
X018082Y014705D02*
X018382Y014705D01*
D14*
X005395Y004892D02*
X005395Y004792D01*
X005395Y004842D02*
X005245Y004842D01*
X005295Y004792D01*
X005245Y004745D02*
X005370Y004745D01*
X005395Y004720D01*
X005395Y004670D01*
X005370Y004645D01*
X005245Y004645D01*
D15*
X006600Y015640D02*
X007600Y015640D01*
X007600Y016640D01*
X006600Y016640D01*
X006600Y015640D01*
X007600Y015640D02*
X008600Y015640D01*
X008600Y016640D01*
X007600Y016640D01*
M02*
